<svg xmlns="http://www.w3.org/2000/svg" width="900" height="420" viewBox="0 0 900 420">
  <rect width="100%" height="100%" fill="#ffffff"/>
  <text x="72" y="24" font-size="18" font-family="Arial, sans-serif" font-weight="700" fill="#111827">Qwen3.6 Megatron-SWIFT train loss</text>
  <text x="876" y="24" font-size="13" font-family="Arial, sans-serif" text-anchor="end" fill="#4b5563">steps=256 final_loss=0.699535</text>
  <line x1="72" y1="36.0" x2="876" y2="36.0" stroke="#e5e7eb" />
  <line x1="72" y1="116.5" x2="876" y2="116.5" stroke="#e5e7eb" />
  <line x1="72" y1="197.0" x2="876" y2="197.0" stroke="#e5e7eb" />
  <line x1="72" y1="277.5" x2="876" y2="277.5" stroke="#e5e7eb" />
  <line x1="72" y1="358.0" x2="876" y2="358.0" stroke="#e5e7eb" />
  <line x1="72" y1="36" x2="72" y2="358" stroke="#111827" />
  <line x1="72" y1="358" x2="876" y2="358" stroke="#111827" />
  <polyline points="72.0,129.7 75.2,58.2 78.3,188.0 81.5,83.1 84.6,253.4 87.8,134.1 90.9,169.0 94.1,252.8 97.2,171.1 100.4,149.6 103.5,216.5 106.7,196.6 109.8,233.4 113.0,111.6 116.1,188.3 119.3,272.4 122.4,247.0 125.6,217.5 128.8,218.6 131.9,164.8 135.1,213.8 138.2,233.9 141.4,215.1 144.5,170.0 147.7,294.0 150.8,218.7 154.0,103.7 157.1,245.2 160.3,235.8 163.4,233.0 166.6,195.2 169.7,211.6 172.9,191.0 176.0,199.9 179.2,195.4 182.4,249.8 185.5,248.6 188.7,131.1 191.8,194.8 195.0,270.1 198.1,196.4 201.3,202.6 204.4,124.6 207.6,146.6 210.7,243.3 213.9,136.0 217.0,138.8 220.2,213.5 223.3,202.0 226.5,179.9 229.6,204.3 232.8,204.7 236.0,220.0 239.1,210.7 242.3,154.4 245.4,180.2 248.6,289.5 251.7,154.7 254.9,285.2 258.0,184.3 261.2,275.2 264.3,223.5 267.5,257.5 270.6,245.3 273.8,211.2 276.9,195.4 280.1,335.8 283.2,292.8 286.4,175.8 289.6,260.0 292.7,160.1 295.9,261.2 299.0,188.9 302.2,167.9 305.3,144.8 308.5,152.8 311.6,283.5 314.8,212.6 317.9,304.0 321.1,218.8 324.2,179.3 327.4,173.3 330.5,173.4 333.7,171.4 336.8,209.9 340.0,140.4 343.2,207.0 346.3,178.7 349.5,263.9 352.6,246.6 355.8,131.9 358.9,194.1 362.1,294.1 365.2,188.1 368.4,242.4 371.5,235.9 374.7,103.2 377.8,139.1 381.0,264.9 384.1,115.3 387.3,238.2 390.4,227.0 393.6,239.9 396.8,253.1 399.9,114.7 403.1,196.6 406.2,200.3 409.4,196.9 412.5,225.5 415.7,180.5 418.8,276.6 422.0,212.2 425.1,198.2 428.3,183.8 431.4,155.5 434.6,216.2 437.7,217.8 440.9,197.2 444.0,193.4 447.2,281.3 450.4,189.8 453.5,272.1 456.7,277.0 459.8,229.2 463.0,187.3 466.1,249.7 469.3,195.2 472.4,165.0 475.6,253.7 478.7,230.1 481.9,186.7 485.0,296.0 488.2,68.6 491.3,221.4 494.5,143.4 497.6,211.2 500.8,219.7 504.0,216.5 507.1,283.6 510.3,230.2 513.4,143.1 516.6,172.7 519.7,150.9 522.9,222.8 526.0,138.0 529.2,148.2 532.3,206.5 535.5,216.3 538.6,240.3 541.8,261.4 544.9,229.1 548.1,187.2 551.2,191.2 554.4,237.0 557.6,193.1 560.7,249.4 563.9,277.8 567.0,147.2 570.2,250.0 573.3,298.0 576.5,192.9 579.6,214.5 582.8,264.4 585.9,178.5 589.1,278.6 592.2,266.9 595.4,290.9 598.5,192.4 601.7,199.4 604.8,215.1 608.0,165.1 611.2,257.7 614.3,265.6 617.5,172.6 620.6,254.6 623.8,300.2 626.9,189.0 630.1,223.5 633.2,196.8 636.4,280.7 639.5,175.7 642.7,189.0 645.8,235.7 649.0,249.8 652.1,162.5 655.3,284.1 658.4,189.8 661.6,200.1 664.8,168.4 667.9,227.1 671.1,163.2 674.2,218.3 677.4,163.9 680.5,206.6 683.7,234.3 686.8,226.4 690.0,210.0 693.1,207.6 696.3,292.4 699.4,254.8 702.6,175.8 705.7,241.7 708.9,174.4 712.0,179.6 715.2,203.5 718.4,247.9 721.5,301.5 724.7,261.4 727.8,189.3 731.0,310.5 734.1,218.7 737.3,204.4 740.4,205.6 743.6,207.0 746.7,194.9 749.9,134.7 753.0,245.8 756.2,217.8 759.3,192.2 762.5,204.6 765.6,173.9 768.8,179.4 772.0,237.8 775.1,278.4 778.3,168.7 781.4,155.2 784.6,116.3 787.7,256.1 790.9,135.5 794.0,241.0 797.2,163.7 800.3,180.7 803.5,197.0 806.6,190.4 809.8,164.8 812.9,317.9 816.1,255.1 819.2,261.4 822.4,203.8 825.6,206.2 828.7,158.3 831.9,104.0 835.0,192.9 838.2,226.2 841.3,261.1 844.5,181.7 847.6,265.4 850.8,160.3 853.9,165.3 857.1,251.5 860.2,97.9 863.4,142.0 866.5,150.5 869.7,227.3 872.8,312.1 876.0,314.0" fill="none" stroke="#2563eb" stroke-width="2.5" stroke-linejoin="round" stroke-linecap="round" />
  <circle cx="72.0" cy="129.7" r="4" fill="#10b981" />
  <circle cx="876.0" cy="314.0" r="4" fill="#ef4444" />
  <text x="62" y="40.0" text-anchor="end" font-size="12" fill="#4b5563">1.193</text>
  <text x="62" y="120.5" text-anchor="end" font-size="12" fill="#4b5563">1.05</text>
  <text x="62" y="201.0" text-anchor="end" font-size="12" fill="#4b5563">0.9071</text>
  <text x="62" y="281.5" text-anchor="end" font-size="12" fill="#4b5563">0.7642</text>
  <text x="62" y="362.0" text-anchor="end" font-size="12" fill="#4b5563">0.6214</text>
  <text x="72.0" y="392" text-anchor="middle" font-size="12" fill="#4b5563">1</text>
  <text x="273.0" y="392" text-anchor="middle" font-size="12" fill="#4b5563">65</text>
  <text x="474.0" y="392" text-anchor="middle" font-size="12" fill="#4b5563">128</text>
  <text x="675.0" y="392" text-anchor="middle" font-size="12" fill="#4b5563">192</text>
  <text x="876.0" y="392" text-anchor="middle" font-size="12" fill="#4b5563">256</text>
  <text x="450.0" y="412" text-anchor="middle" font-size="13" font-family="Arial, sans-serif" fill="#111827">training step</text>
  <text x="18" y="197.0" text-anchor="middle" font-size="13" font-family="Arial, sans-serif" fill="#111827" transform="rotate(-90 18 197.0)">loss</text>
</svg>
