<svg xmlns="http://www.w3.org/2000/svg" width="900" height="420" viewBox="0 0 900 420">
  <rect width="100%" height="100%" fill="#ffffff"/>
  <text x="72" y="24" font-size="18" font-family="Arial, sans-serif" font-weight="700" fill="#111827">Qwen Megatron-SWIFT MoE text-mix loss</text>
  <text x="876" y="24" font-size="13" font-family="Arial, sans-serif" text-anchor="end" fill="#4b5563">steps=256 final_loss=0.310637</text>
  <line x1="72" y1="36.0" x2="876" y2="36.0" stroke="#e5e7eb" /><line x1="72" y1="116.5" x2="876" y2="116.5" stroke="#e5e7eb" /><line x1="72" y1="197.0" x2="876" y2="197.0" stroke="#e5e7eb" /><line x1="72" y1="277.5" x2="876" y2="277.5" stroke="#e5e7eb" /><line x1="72" y1="358.0" x2="876" y2="358.0" stroke="#e5e7eb" />
  <line x1="72" y1="36" x2="72" y2="358" stroke="#111827" />
  <line x1="72" y1="358" x2="876" y2="358" stroke="#111827" />
  <polyline points="72.0,224.8 75.2,275.4 78.3,263.2 81.5,257.2 84.6,237.8 87.8,230.6 90.9,204.6 94.1,238.5 97.2,221.0 100.4,209.6 103.5,170.8 106.7,254.3 109.8,222.0 113.0,231.2 116.1,244.4 119.3,237.9 122.4,264.0 125.6,270.1 128.8,219.5 131.9,252.5 135.1,265.2 138.2,298.5 141.4,275.0 144.5,282.2 147.7,261.5 150.8,283.1 154.0,286.6 157.1,244.9 160.3,284.7 163.4,273.0 166.6,223.6 169.7,182.6 172.9,233.2 176.0,181.4 179.2,58.2 182.4,256.1 185.5,283.8 188.7,263.2 191.8,249.5 195.0,248.3 198.1,227.8 201.3,219.2 204.4,214.3 207.6,205.5 210.7,240.8 213.9,248.5 217.0,265.0 220.2,248.3 223.3,224.8 226.5,261.1 229.6,263.9 232.8,283.4 236.0,272.8 239.1,276.8 242.3,272.7 245.4,266.0 248.6,253.2 251.7,264.4 254.9,268.7 258.0,301.1 261.2,278.2 264.3,245.2 267.5,288.1 270.6,252.2 273.8,284.7 276.9,263.1 280.1,207.2 283.2,224.5 286.4,98.6 289.6,241.7 292.7,268.3 295.9,268.7 299.0,269.8 302.2,248.9 305.3,256.2 308.5,218.8 311.6,232.8 314.8,224.0 317.9,190.4 321.1,193.1 324.2,243.9 327.4,258.4 330.5,239.9 333.7,269.5 336.8,223.3 340.0,287.5 343.2,255.7 346.3,302.5 349.5,239.6 352.6,256.9 355.8,267.3 358.9,273.9 362.1,289.2 365.2,234.9 368.4,249.1 371.5,275.9 374.7,219.3 377.8,295.6 381.0,248.9 384.1,251.9 387.3,257.3 390.4,223.2 393.6,181.0 396.8,160.0 399.9,168.3 403.1,260.8 406.2,258.9 409.4,252.0 412.5,228.8 415.7,271.8 418.8,258.2 422.0,203.3 425.1,199.0 428.3,249.9 431.4,229.3 434.6,241.0 437.7,279.3 440.9,263.2 444.0,263.3 447.2,275.2 450.4,277.7 453.5,275.2 456.7,281.1 459.8,282.0 463.0,259.4 466.1,252.2 469.3,292.3 472.4,244.0 475.6,267.5 478.7,272.9 481.9,276.9 485.0,286.6 488.2,312.2 491.3,258.8 494.5,257.0 497.6,225.3 500.8,275.3 504.0,174.6 507.1,137.1 510.3,132.1 513.4,282.5 516.6,285.6 519.7,286.1 522.9,285.6 526.0,264.8 529.2,267.3 532.3,268.3 535.5,234.7 538.6,260.9 541.8,254.6 544.9,281.9 548.1,251.1 551.2,289.0 554.4,291.0 557.6,280.0 560.7,308.6 563.9,299.0 567.0,303.5 570.2,275.1 573.3,315.9 576.5,295.3 579.6,318.5 582.8,290.0 585.9,299.0 589.1,316.2 592.2,309.2 595.4,293.7 598.5,328.8 601.7,314.1 604.8,333.4 608.0,295.5 611.2,311.7 614.3,323.6 617.5,275.5 620.6,283.9 623.8,271.0 626.9,281.2 630.1,295.7 633.2,255.2 636.4,279.2 639.5,268.8 642.7,243.7 645.8,229.7 649.0,239.4 652.1,261.7 655.3,293.3 658.4,311.7 661.6,278.3 664.8,273.4 667.9,313.3 671.1,265.4 674.2,320.8 677.4,315.9 680.5,303.1 683.7,273.7 686.8,287.0 690.0,315.4 693.1,285.1 696.3,325.1 699.4,317.8 702.6,335.8 705.7,311.9 708.9,309.8 712.0,329.7 715.2,277.0 718.4,334.6 721.5,326.5 724.7,266.1 727.8,239.5 731.0,274.3 734.1,278.5 737.3,279.8 740.4,262.7 743.6,266.9 746.7,276.4 749.9,210.9 753.0,247.6 756.2,269.8 759.3,229.7 762.5,269.3 765.6,249.1 768.8,283.7 772.0,283.7 775.1,293.6 778.3,287.9 781.4,292.8 784.6,319.4 787.7,319.1 790.9,269.2 794.0,319.6 797.2,313.3 800.3,303.1 803.5,300.9 806.6,283.4 809.8,318.7 812.9,318.7 816.1,322.7 819.2,327.3 822.4,324.4 825.6,314.8 828.7,298.4 831.9,270.7 835.0,292.3 838.2,307.6 841.3,311.7 844.5,284.3 847.6,278.8 850.8,278.1 853.9,264.3 857.1,277.2 860.2,265.9 863.4,239.0 866.5,259.8 869.7,262.0 872.8,254.8 876.0,282.2" fill="none" stroke="#2563eb" stroke-width="2.5" stroke-linejoin="round" stroke-linecap="round" />
  <circle cx="72.0" cy="224.8" r="4" fill="#10b981" />
  <circle cx="876.0" cy="282.2" r="4" fill="#ef4444" />
  <text x="62" y="40.0" text-anchor="end" font-size="12" fill="#4b5563">1.277</text><text x="62" y="120.5" text-anchor="end" font-size="12" fill="#4b5563">0.9612</text><text x="62" y="201.0" text-anchor="end" font-size="12" fill="#4b5563">0.6451</text><text x="62" y="281.5" text-anchor="end" font-size="12" fill="#4b5563">0.329</text><text x="62" y="362.0" text-anchor="end" font-size="12" fill="#4b5563">0.01294</text><text x="72.0" y="392" text-anchor="middle" font-size="12" fill="#4b5563">1</text><text x="273.0" y="392" text-anchor="middle" font-size="12" fill="#4b5563">65</text><text x="474.0" y="392" text-anchor="middle" font-size="12" fill="#4b5563">128</text><text x="675.0" y="392" text-anchor="middle" font-size="12" fill="#4b5563">192</text><text x="876.0" y="392" text-anchor="middle" font-size="12" fill="#4b5563">256</text>
  <text x="450.0" y="412" text-anchor="middle" font-size="13" font-family="Arial, sans-serif" fill="#111827">training step</text>
  <text x="18" y="197.0" text-anchor="middle" font-size="13" font-family="Arial, sans-serif" fill="#111827" transform="rotate(-90 18 197.0)">loss</text>
</svg>
