<svg xmlns="http://www.w3.org/2000/svg" width="900" height="420" viewBox="0 0 900 420">
  <rect width="100%" height="100%" fill="#ffffff"/>
  <text x="72" y="24" font-size="18" font-family="Arial, sans-serif" font-weight="700" fill="#111827">Qwen Megatron-SWIFT MoE text-mix loss</text>
  <text x="876" y="24" font-size="13" font-family="Arial, sans-serif" text-anchor="end" fill="#4b5563">steps=256 final_loss=0.308901</text>
  <line x1="72" y1="36.0" x2="876" y2="36.0" stroke="#e5e7eb" /><line x1="72" y1="116.5" x2="876" y2="116.5" stroke="#e5e7eb" /><line x1="72" y1="197.0" x2="876" y2="197.0" stroke="#e5e7eb" /><line x1="72" y1="277.5" x2="876" y2="277.5" stroke="#e5e7eb" /><line x1="72" y1="358.0" x2="876" y2="358.0" stroke="#e5e7eb" />
  <line x1="72" y1="36" x2="72" y2="358" stroke="#111827" />
  <line x1="72" y1="358" x2="876" y2="358" stroke="#111827" />
  <polyline points="72.0,225.6 75.2,276.1 78.3,264.0 81.5,258.1 84.6,238.9 87.8,231.6 90.9,205.5 94.1,239.4 97.2,222.2 100.4,210.8 103.5,172.2 106.7,255.6 109.8,223.0 113.0,232.1 116.1,245.7 119.3,238.4 122.4,264.8 125.6,271.0 128.8,220.4 131.9,253.1 135.1,266.0 138.2,299.3 141.4,275.5 144.5,283.2 147.7,262.2 150.8,283.4 154.0,287.2 157.1,244.6 160.3,284.9 163.4,273.2 166.6,223.9 169.7,183.8 172.9,234.3 176.0,184.1 179.2,58.2 182.4,256.8 185.5,284.4 188.7,263.9 191.8,250.2 195.0,249.2 198.1,228.8 201.3,220.2 204.4,215.0 207.6,206.4 210.7,241.7 213.9,249.8 217.0,265.8 220.2,248.7 223.3,225.6 226.5,262.0 229.6,264.5 232.8,284.5 236.0,273.7 239.1,277.3 242.3,273.4 245.4,266.8 248.6,254.6 251.7,265.1 254.9,269.4 258.0,301.7 261.2,278.7 264.3,246.2 267.5,288.1 270.6,253.9 273.8,286.2 276.9,264.2 280.1,208.4 283.2,225.3 286.4,102.9 289.6,243.8 292.7,269.6 295.9,269.9 299.0,270.4 302.2,249.8 305.3,256.8 308.5,219.7 311.6,233.6 314.8,225.0 317.9,191.6 321.1,194.0 324.2,244.7 327.4,259.5 330.5,241.3 333.7,271.0 336.8,224.6 340.0,288.5 343.2,256.7 346.3,303.6 349.5,241.2 352.6,257.7 355.8,267.3 358.9,273.9 362.1,289.8 365.2,236.4 368.4,249.8 371.5,275.7 374.7,220.2 377.8,296.7 381.0,249.2 384.1,251.9 387.3,258.4 390.4,222.6 393.6,182.4 396.8,161.1 399.9,169.5 403.1,262.0 406.2,259.9 409.4,252.8 412.5,229.6 415.7,272.6 418.8,258.9 422.0,204.5 425.1,200.0 428.3,250.6 431.4,230.0 434.6,241.6 437.7,280.0 440.9,263.2 444.0,264.0 447.2,276.0 450.4,278.0 453.5,276.2 456.7,282.1 459.8,282.2 463.0,259.5 466.1,253.2 469.3,292.6 472.4,245.1 475.6,267.9 478.7,273.7 481.9,277.8 485.0,286.8 488.2,312.4 491.3,260.0 494.5,257.7 497.6,225.6 500.8,275.9 504.0,177.0 507.1,137.4 510.3,134.5 513.4,283.0 516.6,286.3 519.7,286.7 522.9,286.3 526.0,265.6 529.2,264.6 532.3,269.4 535.5,235.7 538.6,261.3 541.8,255.4 544.9,282.7 548.1,252.2 551.2,290.0 554.4,292.0 557.6,280.3 560.7,308.8 563.9,299.4 567.0,304.0 570.2,275.5 573.3,316.1 576.5,295.8 579.6,318.7 582.8,290.8 585.9,299.5 589.1,316.8 592.2,308.9 595.4,293.6 598.5,329.2 601.7,314.1 604.8,333.8 608.0,295.8 611.2,313.4 614.3,323.2 617.5,276.0 620.6,287.5 623.8,271.9 626.9,281.9 630.1,296.2 633.2,255.9 636.4,278.6 639.5,269.6 642.7,244.2 645.8,230.4 649.0,239.7 652.1,262.6 655.3,293.5 658.4,312.0 661.6,279.5 664.8,274.2 667.9,314.2 671.1,266.3 674.2,321.2 677.4,316.7 680.5,303.5 683.7,274.1 686.8,287.3 690.0,315.6 693.1,286.2 696.3,324.9 699.4,318.2 702.6,335.8 705.7,311.8 708.9,309.8 712.0,331.2 715.2,277.9 718.4,334.7 721.5,329.2 724.7,266.7 727.8,237.4 731.0,274.5 734.1,279.2 737.3,280.3 740.4,263.4 743.6,265.9 746.7,274.9 749.9,211.8 753.0,248.2 756.2,270.3 759.3,231.0 762.5,269.9 765.6,250.1 768.8,284.0 772.0,283.9 775.1,294.4 778.3,288.8 781.4,293.9 784.6,319.9 787.7,319.6 790.9,269.4 794.0,320.2 797.2,313.7 800.3,304.1 803.5,300.9 806.6,283.8 809.8,318.9 812.9,318.3 816.1,323.7 819.2,326.8 822.4,323.6 825.6,315.1 828.7,298.2 831.9,272.5 835.0,295.0 838.2,309.4 841.3,312.3 844.5,284.8 847.6,279.3 850.8,278.7 853.9,264.9 857.1,277.7 860.2,262.9 863.4,239.7 866.5,260.1 869.7,262.7 872.8,255.7 876.0,283.3" fill="none" stroke="#2563eb" stroke-width="2.5" stroke-linejoin="round" stroke-linecap="round" />
  <circle cx="72.0" cy="225.6" r="4" fill="#10b981" />
  <circle cx="876.0" cy="283.3" r="4" fill="#ef4444" />
  <text x="62" y="40.0" text-anchor="end" font-size="12" fill="#4b5563">1.284</text><text x="62" y="120.5" text-anchor="end" font-size="12" fill="#4b5563">0.9665</text><text x="62" y="201.0" text-anchor="end" font-size="12" fill="#4b5563">0.6491</text><text x="62" y="281.5" text-anchor="end" font-size="12" fill="#4b5563">0.3316</text><text x="62" y="362.0" text-anchor="end" font-size="12" fill="#4b5563">0.01419</text><text x="72.0" y="392" text-anchor="middle" font-size="12" fill="#4b5563">1</text><text x="273.0" y="392" text-anchor="middle" font-size="12" fill="#4b5563">65</text><text x="474.0" y="392" text-anchor="middle" font-size="12" fill="#4b5563">128</text><text x="675.0" y="392" text-anchor="middle" font-size="12" fill="#4b5563">192</text><text x="876.0" y="392" text-anchor="middle" font-size="12" fill="#4b5563">256</text>
  <text x="450.0" y="412" text-anchor="middle" font-size="13" font-family="Arial, sans-serif" fill="#111827">training step</text>
  <text x="18" y="197.0" text-anchor="middle" font-size="13" font-family="Arial, sans-serif" fill="#111827" transform="rotate(-90 18 197.0)">loss</text>
</svg>
